<?xml version="1.0" standalone="no"?>
<!DOCTYPE svg PUBLIC "-//W3C//DTD SVG 20010904//EN"
 "http://www.w3.org/TR/2001/REC-SVG-20010904/DTD/svg10.dtd">
<svg version="1.0" xmlns="http://www.w3.org/2000/svg"
 width="1080.000000pt" height="1080.000000pt" viewBox="0 0 1080.000000 1080.000000"
 preserveAspectRatio="xMidYMid meet">
<metadata>
Created by potrace 1.11, written by Peter Selinger 2001-2013
</metadata>
<g transform="translate(0.000000,1080.000000) scale(0.100000,-0.100000)"
fill="#000000" stroke="none">
<path d="M5585 10410 c-3 -4 -28 -7 -57 -5 -29 1 -57 -1 -63 -5 -11 -8 -75
-19 -137 -23 -21 -1 -38 -6 -38 -11 0 -4 -11 -6 -25 -4 -14 3 -25 1 -25 -3 0
-5 -11 -9 -25 -9 -14 0 -25 -4 -25 -9 0 -5 -12 -11 -27 -13 -38 -7 -57 -12
-63 -18 -3 -3 -18 -12 -35 -21 -16 -9 -29 -21 -27 -27 1 -7 -13 -12 -35 -13
-37 -1 -53 -3 -63 -8 -3 -2 -16 -5 -30 -7 -52 -7 -156 -24 -180 -29 -14 -3
-44 -8 -67 -11 -24 -3 -43 -9 -43 -13 0 -3 -10 -7 -22 -8 -41 -4 -116 -21
-133 -32 -5 -3 -14 -6 -20 -7 -5 -1 -29 -9 -52 -18 -24 -8 -43 -13 -43 -9 0 3
-7 0 -15 -7 -9 -7 -18 -10 -21 -7 -3 3 -14 -2 -25 -11 -11 -9 -23 -17 -27 -18
-26 -3 -75 -21 -124 -46 -32 -15 -58 -26 -58 -23 0 2 -17 -7 -37 -21 -20 -13
-42 -23 -48 -20 -6 2 -17 -5 -24 -15 -6 -11 -16 -17 -21 -14 -6 3 -10 2 -10
-2 0 -5 -16 -15 -35 -22 -19 -7 -35 -17 -35 -22 0 -5 -7 -9 -15 -9 -8 0 -15
-4 -15 -9 0 -5 -13 -14 -30 -21 -16 -7 -30 -16 -30 -21 0 -5 -7 -9 -15 -9 -9
0 -26 -10 -39 -22 -13 -13 -30 -24 -37 -26 -8 -2 -16 -7 -19 -10 -7 -10 -84
-67 -90 -67 -3 0 -22 -17 -43 -38 -20 -21 -41 -36 -47 -32 -5 3 -10 2 -10 -4
0 -5 -26 -33 -57 -63 -32 -29 -71 -68 -88 -86 -16 -18 -56 -59 -87 -89 -32
-31 -58 -60 -58 -65 0 -5 -16 -24 -35 -42 -19 -19 -35 -38 -35 -43 0 -5 -13
-22 -30 -38 -16 -16 -30 -33 -30 -37 0 -5 -9 -19 -20 -31 -31 -34 -85 -110
-93 -129 -3 -10 -11 -18 -16 -18 -5 0 -12 -11 -15 -25 -4 -16 -11 -23 -18 -19
-6 4 -8 3 -5 -3 4 -5 -2 -19 -13 -30 -10 -12 -16 -24 -13 -27 4 -3 1 -6 -5 -6
-7 0 -12 -6 -12 -14 0 -8 -7 -21 -15 -30 -13 -13 -38 -66 -35 -74 1 -2 -9 -12
-21 -23 -12 -10 -19 -19 -15 -19 4 0 0 -10 -8 -21 -15 -22 -11 -53 5 -43 5 3
17 7 26 9 10 2 28 7 41 11 16 5 22 2 22 -10 0 -9 -4 -16 -10 -16 -5 0 -7 -7
-4 -15 4 -8 1 -15 -4 -15 -6 0 -11 -8 -11 -17 -1 -33 -13 -83 -21 -83 -4 0 -6
-10 -6 -22 1 -13 -1 -28 -6 -34 -4 -6 -10 -21 -12 -35 -3 -13 -5 -26 -6 -29
-1 -3 -2 -13 -1 -22 1 -10 -2 -18 -7 -18 -6 0 -10 -16 -10 -35 0 -20 -4 -41
-10 -48 -5 -6 -7 -25 -5 -40 2 -16 0 -26 -5 -23 -6 3 -10 -15 -11 -42 -4 -104
-13 -202 -19 -202 -8 0 -4 -561 4 -685 3 -44 9 -84 13 -90 4 -5 6 -31 6 -57
-1 -27 2 -48 6 -48 4 0 7 -18 5 -40 -2 -21 1 -41 5 -42 5 -2 10 -23 10 -48 1
-25 5 -50 10 -55 4 -6 6 -23 5 -38 -2 -15 0 -30 4 -32 7 -4 25 -112 22 -127
-1 -5 2 -8 7 -8 5 0 9 -15 9 -34 0 -19 3 -40 7 -46 6 -10 9 -23 19 -82 1 -10
5 -21 9 -24 4 -4 7 -17 7 -29 0 -12 3 -25 7 -28 3 -4 8 -17 9 -30 6 -46 11
-63 22 -83 6 -12 9 -24 5 -27 -3 -4 -1 -12 4 -19 15 -19 27 -118 15 -118 -6 0
-14 -10 -18 -22 -3 -13 -13 -30 -21 -39 -7 -9 -13 -20 -12 -25 1 -5 -1 -18 -5
-29 -17 -45 -19 -51 -22 -70 -2 -11 -5 -32 -8 -47 -2 -15 -7 -32 -11 -38 -4
-6 -7 -32 -7 -58 0 -25 -3 -51 -6 -57 -10 -15 -10 -395 0 -395 4 0 7 -19 6
-42 -1 -24 2 -61 7 -83 4 -22 7 -50 6 -62 -1 -13 3 -23 9 -23 7 0 10 -7 7 -15
-4 -8 -2 -17 3 -20 6 -4 10 -21 10 -39 0 -17 5 -37 12 -44 7 -7 8 -12 4 -12
-5 0 -3 -7 4 -15 7 -9 10 -18 7 -21 -3 -4 2 -28 13 -55 10 -27 16 -49 13 -49
-2 0 3 -7 11 -16 15 -14 21 -44 16 -69 -1 -5 2 -7 6 -3 8 8 54 -85 54 -108 0
-8 6 -17 14 -20 8 -3 18 -19 21 -35 4 -16 11 -29 16 -29 5 0 13 -8 16 -17 4
-10 23 -38 42 -63 71 -89 73 -91 112 -122 19 -14 45 -36 58 -47 13 -11 27 -18
31 -16 5 3 10 0 12 -7 2 -6 11 -13 19 -14 7 -2 23 -5 33 -7 11 -2 21 -8 23
-13 2 -5 23 -8 48 -6 73 6 93 -3 102 -46 4 -20 6 -41 4 -47 -2 -5 -3 -17 -2
-25 1 -8 1 -32 1 -53 -1 -21 3 -43 7 -50 4 -6 8 -28 9 -47 3 -63 13 -102 28
-119 8 -9 15 -20 16 -26 2 -5 6 -20 11 -33 5 -13 9 -28 9 -33 0 -5 5 -9 12 -9
6 0 9 -3 5 -6 -3 -3 7 -20 23 -38 17 -17 30 -34 30 -38 0 -4 10 -16 22 -28 12
-11 19 -20 15 -20 -4 0 14 -23 41 -50 27 -27 53 -50 59 -50 5 0 15 -11 21 -25
6 -14 18 -25 26 -25 7 0 16 -9 19 -20 3 -11 11 -19 18 -18 7 2 13 -2 14 -7 0
-15 53 -70 68 -70 6 -1 11 -6 9 -13 -1 -7 3 -12 9 -12 12 0 39 -25 39 -36 0
-9 49 -54 58 -54 12 0 41 -38 35 -44 -3 -3 6 -10 21 -15 14 -6 26 -17 26 -24
0 -15 44 -57 60 -57 6 0 10 -6 10 -12 0 -7 25 -36 55 -64 51 -47 55 -53 46
-77 -6 -15 -7 -27 -2 -27 9 0 13 -43 13 -145 -1 -33 3 -64 7 -70 5 -5 7 -48 6
-95 0 -47 3 -88 8 -91 9 -7 13 -166 4 -175 -3 -3 -1 -20 5 -37 10 -30 13 -69
23 -245 2 -40 9 -80 16 -88 9 -11 9 -14 0 -14 -8 0 -10 -8 -5 -22 4 -13 7 -44
7 -70 0 -27 3 -48 6 -48 4 0 7 -25 7 -56 1 -54 0 -55 -24 -49 -14 3 -37 15
-50 26 -14 10 -31 19 -38 19 -8 0 -14 5 -14 11 0 5 -4 8 -9 5 -5 -3 -14 1 -21
9 -29 35 -55 -28 -30 -75 7 -13 7 -21 0 -25 -6 -4 -7 -12 -3 -18 10 -17 11
-47 1 -53 -4 -3 -8 -16 -8 -30 0 -14 3 -23 8 -21 6 4 8 -194 3 -325 -1 -33
-15 -37 -18 -5 -8 92 -8 92 -33 93 -14 0 -31 -4 -37 -9 -7 -5 -19 -7 -27 -4
-7 3 -18 1 -24 -5 -6 -6 -24 -12 -39 -14 -15 -1 -39 -5 -53 -8 -14 -4 -40 -9
-57 -12 -32 -6 -33 -8 -33 -55 0 -26 4 -50 8 -53 10 -6 8 -51 -3 -53 -4 0 -12
-8 -17 -16 -5 -9 -16 -13 -28 -10 -12 3 -20 0 -20 -7 0 -8 -9 -11 -25 -8 -14
3 -25 1 -25 -3 0 -5 -11 -9 -25 -9 -14 0 -25 -4 -25 -9 0 -6 -9 -8 -20 -6 -11
2 -20 0 -20 -6 0 -5 -8 -9 -18 -9 -10 0 -27 -7 -40 -15 -12 -9 -27 -15 -34
-14 -22 3 -78 -13 -73 -21 2 -4 -8 -6 -23 -5 -15 1 -31 -1 -37 -5 -8 -6 -79
-32 -95 -35 -3 -1 -14 -4 -25 -8 -20 -7 -20 -16 -20 -499 l0 -493 2023 -3
2022 -2 0 495 c-1 426 -3 497 -15 500 -8 3 -23 8 -32 12 -10 3 -25 7 -33 8 -8
1 -23 5 -32 8 -10 4 -26 10 -35 14 -21 7 -14 5 -83 22 -30 8 -61 18 -67 23 -7
6 -20 8 -28 4 -8 -3 -15 -1 -15 4 0 8 -57 26 -72 22 -5 -1 -8 2 -8 7 0 9 -56
25 -78 22 -7 -1 -22 5 -34 14 -13 8 -30 15 -39 15 -20 0 -31 24 -17 38 9 9 12
41 9 104 -1 21 -7 28 -33 34 -18 4 -37 7 -42 6 -4 -2 -13 1 -20 7 -6 5 -36 12
-66 16 -30 4 -59 11 -65 15 -30 22 -77 -6 -70 -42 2 -10 0 -18 -5 -18 -5 0 -8
118 -7 265 2 264 2 265 -19 265 -12 0 -27 -7 -34 -15 -7 -8 -18 -15 -26 -15
-7 0 -20 -7 -28 -16 -9 -8 -16 -13 -16 -9 0 4 -12 -3 -27 -15 -23 -18 -28 -19
-41 -6 -12 12 -13 18 -4 29 7 9 11 42 9 85 -1 40 1 73 6 75 5 1 9 39 9 82 1
44 3 85 7 90 3 6 6 44 7 85 0 41 4 93 9 115 7 38 11 97 17 282 2 45 6 85 11
89 4 4 7 52 7 106 0 54 3 98 8 98 4 0 7 30 6 67 0 64 11 112 23 99 7 -6 185
169 183 179 -1 4 9 13 22 19 13 6 29 24 36 39 7 15 18 27 23 27 14 0 39 26 39
40 0 7 7 10 15 6 8 -3 14 -2 12 2 -2 7 71 81 141 143 18 16 31 29 28 29 -6 0
49 55 81 79 14 12 23 21 20 21 -3 0 4 11 16 24 12 14 32 36 44 50 12 13 25 36
29 50 3 13 12 27 20 30 8 3 14 12 14 21 0 8 5 15 10 15 6 0 9 3 8 8 -2 12 26
102 32 102 4 0 7 17 8 37 1 21 6 70 12 108 5 39 11 97 12 130 l3 60 55 3 c30
1 62 5 70 9 8 3 23 7 33 8 9 2 20 4 25 5 4 1 10 2 15 1 4 0 7 4 7 9 0 6 5 10
10 10 14 0 72 41 83 58 4 6 14 12 20 12 13 0 92 78 92 91 0 4 9 16 20 26 22
20 37 41 62 91 9 17 20 32 25 32 4 0 8 7 8 15 0 8 6 15 13 15 9 0 9 2 0 8 -9
6 -7 12 7 25 11 9 20 26 20 36 0 11 5 23 10 26 6 4 8 11 5 16 -4 5 -2 9 3 9 5
0 22 38 37 85 15 47 31 85 35 85 5 0 7 10 5 22 -3 12 -1 26 4 32 5 6 11 27 14
46 2 19 8 46 12 60 4 14 9 40 12 58 3 17 9 32 13 32 4 0 6 14 4 30 -2 17 0 30
4 30 9 0 10 540 1 555 -4 6 -6 21 -5 35 1 14 -1 32 -5 41 -5 9 -11 31 -15 50
-3 19 -7 39 -9 44 -14 45 -19 55 -27 55 -5 0 -7 4 -3 9 3 5 0 13 -6 16 -5 4
-8 13 -5 21 3 7 1 16 -4 19 -6 4 -10 14 -10 25 0 10 -13 32 -29 49 -22 24 -29
40 -28 71 0 22 5 40 9 40 5 0 7 4 3 9 -3 5 0 15 7 23 12 12 17 29 21 73 1 11
6 26 10 33 5 6 6 12 3 12 -2 0 0 15 5 33 29 94 51 181 52 205 0 12 5 22 9 22
4 0 8 13 8 29 0 17 4 32 9 36 6 3 8 15 6 27 -3 12 -1 26 3 32 5 6 8 20 7 31 0
11 4 29 9 40 8 18 13 51 18 128 1 15 5 27 9 27 6 0 10 22 22 140 2 19 7 42 10
50 3 8 4 35 3 60 -1 25 3 51 7 57 5 7 9 55 8 108 -1 52 2 95 7 95 4 0 8 79 7
175 0 96 -3 175 -7 175 -4 0 -7 35 -6 78 0 43 -3 87 -9 97 -5 11 -8 38 -7 60
1 22 -3 45 -7 51 -5 6 -7 25 -5 42 2 18 -1 32 -5 32 -5 0 -9 18 -9 40 0 22 -4
40 -8 40 -5 0 -9 6 -9 13 0 6 -3 23 -8 37 -7 24 -6 24 27 -7 35 -34 64 -43 66
-20 5 56 2 118 -6 133 -5 11 -8 41 -7 67 2 27 0 46 -3 42 -3 -3 -12 20 -19 52
-7 32 -14 63 -16 68 -2 6 -7 21 -11 35 -4 14 -13 39 -21 55 -53 122 -70 155
-76 155 -4 0 -11 10 -14 23 -4 12 -19 34 -33 50 -14 15 -22 27 -17 27 5 0 -1
9 -13 21 -12 11 -20 24 -18 28 3 4 -5 14 -18 21 -13 7 -29 23 -34 36 -6 13
-35 46 -64 73 -106 100 -153 140 -162 141 -5 0 -18 10 -30 23 -12 13 -28 21
-35 19 -8 -3 -11 0 -7 6 4 7 -3 14 -18 18 -13 3 -27 12 -30 20 -3 8 -10 14
-16 14 -9 0 -66 35 -80 50 -9 9 -65 34 -72 32 -5 -1 -8 3 -8 9 0 6 -7 9 -15 5
-23 -8 -18 20 8 44 12 12 23 25 23 31 1 5 2 10 4 12 3 3 10 33 17 67 3 16 8
30 12 30 3 0 7 23 7 50 0 28 -3 50 -8 50 -4 0 -8 13 -8 28 0 16 -3 32 -7 36
-4 3 -8 16 -10 28 -2 12 -7 25 -11 28 -8 5 -25 42 -22 48 1 2 -9 12 -21 23
-12 10 -18 19 -13 19 5 0 -30 38 -76 85 -47 47 -93 85 -102 85 -20 0 -19 13
-20 -222 0 -151 -1 -157 -19 -147 -11 5 -19 15 -19 22 0 18 -165 184 -179 179
-6 -2 -11 1 -11 7 0 7 -11 16 -25 21 -14 5 -25 14 -25 20 0 5 -6 10 -14 10 -7
0 -19 7 -26 15 -7 8 -16 12 -21 9 -5 -3 -9 -1 -9 4 0 6 -12 13 -27 17 -15 3
-30 10 -33 14 -8 11 -98 51 -115 51 -8 0 -15 4 -15 8 0 4 -8 9 -17 10 -42 4
-57 9 -61 20 -2 6 -10 8 -18 5 -8 -3 -21 0 -29 7 -8 7 -24 10 -35 7 -11 -3
-20 -2 -20 3 0 10 -52 21 -102 22 -21 1 -38 5 -38 10 0 4 -20 8 -44 8 -25 0
-47 4 -50 8 -2 4 -26 7 -53 6 -26 0 -52 2 -58 5 -14 8 -395 9 -400 1z m155
-113 c13 -5 70 -12 153 -19 15 -1 27 -6 27 -11 0 -5 11 -6 25 -3 17 4 27 2 31
-7 3 -8 17 -12 38 -9 19 2 37 -1 40 -7 4 -6 13 -11 21 -11 8 0 26 -5 42 -12
15 -6 33 -12 38 -13 29 -6 55 -18 55 -26 0 -5 9 -9 19 -9 11 0 23 -5 27 -11 5
-9 -1 -10 -22 -5 -45 10 -48 11 -61 19 -7 4 -23 5 -38 3 -14 -3 -25 0 -25 5 0
5 -20 9 -45 9 -25 0 -45 4 -45 9 0 5 -12 9 -27 9 -16 1 -62 6 -103 13 -41 6
-94 11 -117 11 -24 0 -43 4 -43 8 0 5 -26 9 -57 8 -32 0 -69 4 -83 9 -14 5
-125 8 -247 7 -123 -1 -220 2 -218 7 3 4 21 6 40 5 19 -2 38 0 41 5 3 5 32 9
65 9 32 0 59 3 59 8 0 9 388 8 410 -1z"/>
</g>
</svg>
